Coordinates
version=1
nRows=9
nColumns=24
inDegrees=yes

Units are S.I. units (second, meters, Newtons, ...)
Angles are in degrees.

endheader
time	pelvis_tilt	pelvis_list	pelvis_rotation	pelvis_tx	pelvis_ty	pelvis_tz	hip_flexion_r	hip_adduction_r	hip_rotation_r	knee_angle_r	ankle_angle_r	subtalar_angle_r	mtp_angle_r	hip_flexion_l	hip_adduction_l	hip_rotation_l	knee_angle_l	ankle_angle_l	subtalar_angle_l	mtp_angle_l	lumbar_extension	lumbar_bending	lumbar_rotation
      2.43000000	     59.37920608	      4.30887787	     -2.01816517	      0.56076854	      0.99955176	     -0.28930706	      0.81516235	    -14.50461168	     10.10779131	    -80.29692168	     -3.70016255	     11.24073434	    -51.25594471	     -2.71633590	     -7.28669516	      0.82803824	    -58.60847857	     -0.84378755	      8.92734489	    -33.47247076	      0.00000000	      0.00000000	      0.00000000
      2.44000000	     59.39463743	      4.25653061	     -2.13463153	      0.56069847	      0.99930424	     -0.28905191	      1.34797490	    -14.88236919	     10.26136132	    -82.87601525	     -3.67031125	     10.82506043	    -51.77882914	     -2.80444727	     -7.32613240	      0.78462670	    -58.96078103	     -0.38091839	      9.00913946	    -33.76957242	      0.00000000	      0.00000000	      0.00000000
      2.45000000	     59.39963700	      4.18328748	     -2.24546651	      0.56056767	      0.99875328	     -0.28888295	      1.89907932	    -15.26022613	     10.48530370	    -85.30533839	     -3.59643588	     10.43248441	    -52.37143487	     -2.87463260	     -7.36429128	      0.77709683	    -59.35173999	      0.03917404	      9.08172082	    -33.99510222	      0.00000000	      0.00000000	      0.00000000
      2.46000000	     59.41677614	      4.09597246	     -2.35455941	      0.56038477	      0.99812207	     -0.28875759	      2.43010668	    -15.64095092	     10.76887611	    -87.56320296	     -3.42184356	     10.09912615	    -52.94731034	     -2.89457094	     -7.40473471	      0.78656479	    -59.84756955	      0.32156967	      9.13283604	    -34.07501283	      0.00000000	      0.00000000	      0.00000000
      2.47000000	     59.46675070	      4.00122783	     -2.46737929	      0.56017073	      0.99782382	     -0.28860886	      2.91461180	    -16.02315956	     11.09183839	    -89.63933396	     -3.12153722	      9.84035661	    -53.41738862	     -2.84159900	     -7.44771835	      0.79414436	    -60.48747035	      0.40224991	      9.15438668	    -33.94400885	      0.00000000	      0.00000000	      0.00000000
      2.48000000	     59.55456052	      3.90315050	     -2.58018773	      0.55997659	      0.99786158	     -0.28847147	      3.34473285	    -16.40406735	     11.43236882	    -91.53572103	     -2.70437906	      9.64778318	    -53.70683289	     -2.72133225	     -7.49210648	      0.78917397	    -61.26090238	      0.27407869	      9.14536375	    -33.56059699	      0.00000000	      0.00000000	      0.00000000
      2.49000000	     59.66919967	      3.80440986	     -2.67891697	      0.55981186	      0.99782276	     -0.28842766	      3.72942667	    -16.78139110	     11.77511035	    -93.25841495	     -2.20630656	      9.49343583	    -53.76806968	     -2.56704526	     -7.53779738	      0.77289611	    -62.11130548	     -0.01207655	      9.11269618	    -32.91828083	      0.00000000	      0.00000000	      0.00000000
      2.50000000	     59.79633203	      3.70851369	     -2.75046654	      0.55959770	      0.99747934	     -0.28846157	      4.08453800	    -17.15253425	     12.11333431	    -94.80731128	     -1.67840898	      9.33977125	    -53.58798523	     -2.41831176	     -7.58597302	      0.75494984	    -62.96402815	     -0.37096782	      9.06953855	    -32.04982198	      0.00000000	      0.00000000	      0.00000000
      2.51000000	     59.92677038	      3.61947594	     -2.79426554	      0.55927729	      0.99700279	     -0.28848769	      4.42159498	    -17.51228206	     12.44504125	    -96.17203634	     -1.17382319	      9.15205876	    -53.18852452	     -2.30086337	     -7.63729736	      0.74464582	    -63.75814556	     -0.71563822	      9.03143861	    -31.02339083	      0.00000000	      0.00000000	      0.00000000
